<?xml version="1.0" encoding="utf-8"?>
<!-- Svg Vector Icons : http://www.onlinewebfonts.com/icon -->
<!DOCTYPE svg PUBLIC "-//W3C//DTD SVG 1.1//EN" "http://www.w3.org/Graphics/SVG/1.1/DTD/svg11.dtd">
<svg version="1.1" xmlns="http://www.w3.org/2000/svg" xmlns:xlink="http://www.w3.org/1999/xlink" x="0px" y="0px" viewBox="0 0 256 256" enable-background="new 0 0 256 256" xml:space="preserve">
<metadata> Svg Vector Icons : http://www.onlinewebfonts.com/icon </metadata>
<g><g><g><g><path fill="#000000" d="M202,31.9C188.6,17.3,168.1,10,140.5,10H34v236h51.6v-75.6h54.9c14.1,0,26.7-2.5,37.6-7.6c10.9-5.1,19.4-11.9,25.6-20.5c6.1-8.6,10.8-17.7,13.8-27.2c3.1-9.5,4.6-19.4,4.6-29.5C222.1,64.4,215.4,46.5,202,31.9z M159.8,116c-8,4.9-19.2,7.4-33.6,7.4H85.6v-71h40.6c14.4,0,25.7,2.5,33.6,7.4c8,4.9,12,14.3,12,28.1C171.8,101.7,167.8,111.1,159.8,116z"/></g></g><g></g><g></g><g></g><g></g><g></g><g></g><g></g><g></g><g></g><g></g><g></g><g></g><g></g><g></g><g></g></g></g>
</svg>